<?xml version="1.0" standalone="no"?>
<!DOCTYPE svg PUBLIC "-//W3C//DTD SVG 20010904//EN"
 "http://www.w3.org/TR/2001/REC-SVG-20010904/DTD/svg10.dtd">
<svg version="1.0" xmlns="http://www.w3.org/2000/svg"
 width="529.000000pt" height="379.000000pt" viewBox="0 0 529.000000 379.000000"
 preserveAspectRatio="xMidYMid meet">

<g transform="translate(0.000000,379.000000) scale(0.100000,-0.100000)"
fill="#000000" stroke="none">
<path d="M785 3121 c-27 -16 -59 -39 -70 -51 -12 -14 0 -8 27 13 66 50 127 61
198 37 30 -10 56 -17 58 -16 1 2 -18 13 -43 25 -62 29 -110 27 -170 -8z"/>
<path d="M1456 1950 c4 -19 9 -37 13 -40 3 -3 6 -18 7 -35 0 -16 10 -93 22
-170 29 -187 51 -418 58 -595 4 -102 14 -183 34 -275 15 -71 31 -148 35 -169
3 -21 13 -49 21 -62 11 -16 13 -28 6 -41 -6 -12 -4 -50 5 -108 11 -73 11 -114
2 -215 -6 -69 -13 -128 -16 -133 -2 -4 -19 -8 -36 -8 -29 -2 -29 -2 8 -8 30
-5 41 -2 46 9 4 8 9 80 13 160 10 220 14 247 39 254 20 5 20 6 -6 26 -39 31
-36 67 6 85 17 8 26 14 20 15 -20 0 -15 45 17 158 21 71 30 121 27 151 l-3 46
-2 -50 c-2 -32 -10 -59 -22 -75 -11 -14 -20 -30 -20 -35 0 -6 -9 -28 -20 -50
l-20 -39 0 174 c-1 247 -25 578 -43 597 -4 3 -13 0 -21 -6 -13 -11 -16 -9 -21
11 -11 50 -65 316 -65 324 0 5 -5 2 -10 -6 -6 -9 -10 -10 -10 -3 0 6 -8 19
-17 29 -10 10 -18 22 -19 28 -1 10 -8 30 -27 76 -4 8 -4 -1 -1 -20z"/>
<path d="M1741 1344 c0 -11 3 -14 6 -6 3 7 2 16 -1 19 -3 4 -6 -2 -5 -13z"/>
<path d="M1753 1250 c0 -25 2 -35 4 -22 2 12 2 32 0 45 -2 12 -4 2 -4 -23z"/>
<path d="M1705 1180 c3 -5 8 -10 11 -10 2 0 4 5 4 10 0 6 -5 10 -11 10 -5 0
-7 -4 -4 -10z"/>
<path d="M1762 1110 c0 -19 2 -27 5 -17 2 9 2 25 0 35 -3 9 -5 1 -5 -18z"/>
<path d="M1721 894 c0 -11 3 -14 6 -6 3 7 2 16 -1 19 -3 4 -6 -2 -5 -13z"/>
<path d="M1704 858 c1 -38 16 -55 16 -19 0 11 3 21 8 24 4 2 2 2 -5 1 -6 -2
-14 5 -16 14 -2 9 -4 0 -3 -20z"/>
<path d="M2486 808 c-4 -40 -11 -115 -16 -166 -8 -89 -7 -95 15 -128 13 -19
29 -52 36 -72 6 -20 15 -41 20 -46 5 -6 9 -27 9 -47 0 -21 4 -40 9 -43 12 -8
21 122 21 299 0 151 0 152 -22 150 -42 -4 -48 5 -48 66 0 83 -16 74 -24 -13z"/>
<path d="M2564 38 c-7 -12 69 -9 86 2 11 7 1 9 -33 8 -27 -2 -51 -6 -53 -10z"/>
</g>
</svg>
